<svg id="Capa_1" enable-background="new 0 0 512 512" height="512" viewBox="0 0 512 512" width="512" xmlns="http://www.w3.org/2000/svg"><g><path d="m512 256c0 141.38-114.62 256-256 256s-256-114.62-256-256c0-46.22 12.25-89.57 33.68-127 44.12-77.07 127.16-129 222.32-129s178.2 51.93 222.32 129c21.43 37.43 33.68 80.78 33.68 127z" fill="#ffdc00"/><path d="m512 256c0 65.23-24.41 124.77-64.58 169.98l-33.72 15.15c-100.3 45.08-215.1 45.08-315.4 0l-33.72-15.15c-40.17-45.21-64.58-104.75-64.58-169.98 0-46.22 12.25-89.57 33.68-127 44.12 77.07 127.16 129 222.32 129s178.2-51.93 222.32-129c21.43 37.43 33.68 80.78 33.68 127z" fill="#ffbc00"/><g><g><g><path d="m92.782 150.09h327.312v261.177h-327.312z" fill="#fff"/><path d="m256.435 150.09h163.659v261.177h-163.659z" fill="#cff6ff"/><path d="m92.782 150.09h163.653v106.911h-163.653z" fill="#cff6ff"/><path d="m256.435 150.09h163.659v106.911h-163.659z" fill="#b0edf7"/><path d="m301.324 273.551v137.717h-89.773v-137.717c0-9.142 7.406-16.549 16.543-16.549h56.68c9.138 0 16.55 7.406 16.55 16.549z" fill="#53354b"/><path d="m301.324 273.551v137.717h-44.889v-154.266h28.34c9.137 0 16.549 7.406 16.549 16.549z" fill="#42293d"/><g><g><path d="m452.82 165.855h-392.767l49.222-101.172c2.599-5.341 8.018-8.731 13.958-8.731h266.408c5.94 0 11.359 3.39 13.958 8.731z" fill="#ff3d3b"/><path d="m452.82 165.855h-196.383v-109.903h133.204c5.94 0 11.359 3.39 13.958 8.731z" fill="#e82d2e"/><path d="m125.514 198.585c0 18.077-14.654 32.731-32.731 32.731s-32.731-14.654-32.731-32.731v-32.731h65.462z" fill="#e82d2e"/><path d="m190.975 198.585c0 18.077-14.654 32.731-32.731 32.731s-32.731-14.654-32.731-32.731v-32.731h65.462z" fill="#d32523"/><path d="m256.437 198.585c0 18.077-14.654 32.731-32.731 32.731s-32.731-14.654-32.731-32.731v-32.731h65.462z" fill="#e82d2e"/><path d="m321.898 198.585c0 18.077-14.654 32.731-32.731 32.731s-32.731-14.654-32.731-32.731v-32.731h65.462z" fill="#d32523"/><path d="m387.36 198.585c0 18.077-14.654 32.731-32.731 32.731s-32.731-14.654-32.731-32.731v-32.731h65.462z" fill="#c41a1a"/><path d="m452.821 198.585c0 18.077-14.654 32.731-32.731 32.731s-32.731-14.654-32.731-32.731v-32.731h65.462z" fill="#d32523"/><path d="m125.514 165.854 35.888-109.902h-37.836c-5.925 0-11.334 3.373-13.94 8.694l-49.574 101.208z" fill="#ff3d3b"/><path d="m190.975 165.854 17.944-109.902h-47.517l-35.888 109.902z" fill="#e82d2e"/><path d="m387.36 165.854-35.888-109.902h-47.518l17.944 109.902z" fill="#d32523"/><path d="m452.82 165.855h-65.461l-35.885-109.903h38.167c5.94 0 11.359 3.39 13.958 8.731z" fill="#e82d2e"/></g><path d="m346.719 110.903c0 14.29-11.591 25.88-25.881 25.88-4.813 0-9.054 2.438-11.563 6.143-3.228 4.78-8.486 7.796-14.256 7.796h-77.169c-5.771 0-11.023-3.016-14.256-7.796-2.504-3.706-6.744-6.143-11.557-6.143-7.145 0-13.616-2.899-18.302-7.579-4.68-4.685-7.579-11.157-7.579-18.302 0-14.295 11.585-25.881 25.881-25.881 4.813 0 9.053-2.437 11.557-6.143 3.233-4.785 8.486-7.796 14.256-7.796h77.169c5.771 0 11.029 3.01 14.256 7.796 2.51 3.706 6.75 6.143 11.563 6.143 7.145 0 13.616 2.894 18.302 7.579 4.68 4.687 7.579 11.153 7.579 18.303z" fill="#ffdc00"/><path d="m346.719 110.903c0 14.29-11.591 25.88-25.881 25.88-4.813 0-9.054 2.438-11.563 6.143-3.228 4.78-8.486 7.796-14.256 7.796h-38.584v-79.64h38.584c5.771 0 11.029 3.01 14.256 7.796 2.51 3.706 6.75 6.143 11.563 6.143 7.145 0 13.616 2.894 18.302 7.579 4.68 4.687 7.579 11.153 7.579 18.303z" fill="#ffbc00"/><g><path d="m231.343 97.771c0 3.869-2.579 7.178-6.618 8.412 4.711 1.065 7.795 4.991 7.795 9.926 0 6.729-6.224 11.048-15.814 11.048h-14.817c-3.338 0-6.044-2.706-6.044-6.044v-27.224c0-3.338 2.706-6.044 6.044-6.044h13.863c9.478 0 15.591 3.925 15.591 9.926zm-13.347 2.355c0-1.682-1.178-2.748-2.972-2.748h-6.225v5.608h6.225c1.794 0 2.972-1.122 2.972-2.86zm1.009 14.356c0-1.738-1.57-2.86-3.981-2.86h-6.225v6h6.225c2.411 0 3.981-1.233 3.981-3.14z" fill="#63455d"/><path d="m275.955 118.839-11.068-27.227c-.929-2.276-3.138-3.767-5.598-3.767h-5.27c-2.432 0-4.624 1.452-5.57 3.689l-11.496 27.227c-.334.779-.484 1.58-.484 2.354 0 3.188 2.571 6.043 6.049 6.043 2.543 0 4.819-1.592 5.687-3.979l.568-1.575h14.752l.54 1.519c.851 2.421 3.138 4.034 5.693 4.034h.601c4.288.001 7.21-4.345 5.596-8.318zm-23.822-6.544 4.151-11.496.15.417.006.017 3.884 11.062z" fill="#63455d"/><path d="m302.23 123.644-3.09-6.695h-4.879v4.162c0 3.338-2.706 6.044-6.044 6.044h-.921c-3.338 0-6.044-2.706-6.044-6.044v-27.222c0-3.338 2.706-6.044 6.044-6.044h12.966c10.655 0 16.767 5.103 16.767 14.076 0 5.72-2.187 9.982-6.224 12.45l2.186 3.612c2.438 4.028-.462 9.174-5.171 9.174h-.102c-2.358-.001-4.5-1.372-5.488-3.513zm-7.97-16.564h6.001c2.804 0 4.43-1.738 4.43-4.767 0-2.916-1.626-4.598-4.43-4.598h-6.001z" fill="#53354b"/></g><path d="m270.357 127.158h-.601c-2.554 0-4.841-1.614-5.693-4.034l-.54-1.519h-7.089v-9.31h3.89l-3.884-11.062-.006-.017v-13.372h2.855c2.46 0 4.669 1.491 5.598 3.767l11.068 27.227c1.614 3.974-1.308 8.32-5.598 8.32z" fill="#53354b"/></g></g><g><path d="m452.82 411.267c0 4.062-1.647 7.74-4.307 10.406-2.66 2.66-6.338 4.307-10.4 4.307h-363.347c-8.124 0-14.713-6.589-14.713-14.713 0-4.062 1.647-7.735 4.312-10.4 2.66-2.66 6.338-4.307 10.4-4.307h363.347c8.125 0 14.708 6.589 14.708 14.707z" fill="#63455d"/><path d="m452.82 411.267c0 4.062-1.647 7.74-4.307 10.406-2.66 2.66-6.338 4.307-10.4 4.307h-181.676v-29.42h181.677c8.123 0 14.706 6.589 14.706 14.707z" fill="#53354b"/></g><g><g><path d="m156.044 257.002c-21.88 0-39.619 17.74-39.619 39.62v59.423h79.233v-59.429c0-21.874-17.734-39.614-39.614-39.614zm-8.346 82.349h-14.579v-18.83h14.579zm0-35.524h-14.579v-7.212c0-9.693 6.054-17.996 14.579-21.34zm31.267 35.524h-14.574v-18.83h14.574zm0-35.524h-14.574v-28.552c8.519 3.344 14.574 11.647 14.574 21.34z" fill="#63455d"/><path d="m156.044 257.002v99.043h39.614v-59.429c0-21.874-17.734-39.614-39.614-39.614zm22.921 82.349h-14.574v-18.83h14.574zm0-35.524h-14.574v-28.552c8.519 3.344 14.574 11.647 14.574 21.34z" fill="#53354b"/></g><g><path d="m356.835 257.002c-21.88 0-39.62 17.74-39.62 39.62v59.423h79.233v-59.429c0-21.874-17.734-39.614-39.613-39.614zm-8.347 82.349h-14.579v-18.83h14.579zm0-35.524h-14.579v-7.212c0-9.693 6.054-17.996 14.579-21.34zm31.267 35.524h-14.573v-18.83h14.573zm0-35.524h-14.573v-28.552c8.519 3.344 14.573 11.647 14.573 21.34z" fill="#63455d"/><path d="m356.835 257.002v99.043h39.614v-59.429c-.001-21.874-17.735-39.614-39.614-39.614zm22.92 82.349h-14.573v-18.83h14.573zm0-35.524h-14.573v-28.552c8.519 3.344 14.573 11.647 14.573 21.34z" fill="#53354b"/></g></g><g><path d="m256.435 311.996v44.049h-44.884v-44.049c0-.373.011-.74.028-1.107.573-11.875 10.395-21.335 22.414-21.335s21.841 9.46 22.414 21.335c.017.367.028.734.028 1.107z" fill="#ed771b"/><path d="m256.435 311.996v44.049h-22.442v-66.491c12.019 0 21.841 9.46 22.414 21.335.017.367.028.734.028 1.107z" fill="#d35f40"/><path d="m256.407 310.889c-.573-11.875-10.395-21.335-22.414-21.335s-21.841 9.46-22.414 21.335c-.017.367-.028.734-.028 1.107v44.049h44.884v-44.049c0-.373-.011-.74-.028-1.107zm-26.587 36.809h-9.922v-10.189h9.922zm0-18.535h-9.922v-9.927h9.922zm0-18.274h-9.877c.456-5.832 4.474-10.673 9.877-12.353zm8.346-12.354c5.403 1.681 9.421 6.522 9.877 12.353h-9.877zm9.922 49.163h-9.922v-10.189h9.922zm0-18.535h-9.922v-9.927h9.922z" fill="#ff9971"/><path d="m256.407 310.889c-.573-11.875-10.395-21.335-22.414-21.335v66.491h22.442v-44.049c0-.373-.011-.74-.028-1.107zm-18.241-12.354c5.403 1.681 9.421 6.522 9.877 12.353h-9.877zm9.922 49.163h-9.922v-10.189h9.922zm0-18.535h-9.922v-9.927h9.922z" fill="#f4873d"/></g><g><path d="m301.321 311.996v44.049h-44.884v-44.049c0-.373.011-.74.028-1.107.573-11.875 10.395-21.335 22.414-21.335s21.841 9.46 22.414 21.335c.017.367.028.734.028 1.107z" fill="#ed771b"/><path d="m301.321 311.996v44.049h-22.442v-66.491c12.019 0 21.841 9.46 22.414 21.335.017.367.028.734.028 1.107z" fill="#d35f40"/><path d="m301.293 310.889c-.573-11.875-10.395-21.335-22.414-21.335s-21.841 9.46-22.414 21.335c-.017.367-.028.734-.028 1.107v44.049h44.884v-44.049c0-.373-.011-.74-.028-1.107zm-26.587 36.809h-9.922v-10.189h9.922zm0-18.535h-9.922v-9.927h9.922zm0-18.274h-9.877c.456-5.832 4.474-10.673 9.877-12.353zm8.347-12.354c5.403 1.681 9.421 6.522 9.877 12.353h-9.877zm9.921 49.163h-9.922v-10.189h9.922zm0-18.535h-9.922v-9.927h9.922z" fill="#ff9971"/><path d="m301.293 310.889c-.573-11.875-10.395-21.335-22.414-21.335v66.491h22.442v-44.049c0-.373-.011-.74-.028-1.107zm-18.24-12.354c5.403 1.681 9.421 6.522 9.877 12.353h-9.877zm9.921 49.163h-9.922v-10.189h9.922zm0-18.535h-9.922v-9.927h9.922z" fill="#f4873d"/></g></g><g><path d="m447.42 425.98c-46.82 52.69-115.05 85.91-191.06 86.02h-.36c-76.15 0-144.53-33.25-191.42-86.02z" fill="#c55732"/><path d="m447.42 425.98c-46.82 52.69-115.05 85.91-191.06 86.02v-86.02z" fill="#a64942"/></g></g></g></svg>